Coordinates
version=1
nRows=7
nColumns=40
inDegrees=yes

Units are S.I. units (second, meters, Newtons, ...)
If the header above contains a line with 'inDegrees', this indicates whether rotational values are in degrees (yes) or radians (no).

endheader
time	pelvis_tilt	pelvis_list	pelvis_rotation	pelvis_tx	pelvis_ty	pelvis_tz	hip_flexion_r	hip_adduction_r	hip_rotation_r	knee_angle_r	knee_angle_r_beta	ankle_angle_r	subtalar_angle_r	mtp_angle_r	hip_flexion_l	hip_adduction_l	hip_rotation_l	knee_angle_l	knee_angle_l_beta	ankle_angle_l	subtalar_angle_l	mtp_angle_l	lumbar_extension	lumbar_bending	lumbar_rotation	arm_flex_r	arm_add_r	arm_rot_r	elbow_flex_r	pro_sup_r	wrist_flex_r	wrist_dev_r	arm_flex_l	arm_add_l	arm_rot_l	elbow_flex_l	pro_sup_l	wrist_flex_l	wrist_dev_l
      3.62500000	    -16.85489984	     -2.92754440	      1.24910832	      0.16996965	      0.88702638	     -1.15153690	     23.87830210	    -21.97430045	    -38.59635074	     14.64313745	      0.25557096	     -3.57804548	     11.32165382	      0.00000000	     28.33872785	    -27.18797113	    -28.86943528	     13.60093873	      0.23738116	     -6.74861234	     16.20415866	      0.00000000	      0.00000000	      0.00000000	      0.00000000	     43.27817498	    -15.68226387	     43.27817498	     75.73876152	     44.68515358	      0.00000000	      0.00000000	     43.27817498	    -15.68226387	     43.27817498	     75.73876152	     44.68515358	      0.00000000	      0.00000000
      3.63000000	    -17.53264356	     -2.79217672	      1.33585244	      0.16878587	      0.88537102	     -1.15172533	     25.01170036	    -22.45648783	    -38.51587701	     15.48649322	      0.27029030	     -3.26604522	     11.07798922	      0.00000000	     29.37763944	    -27.02972500	    -28.51161861	     13.96296628	      0.24369973	     -6.67584725	     15.86429172	      0.00000000	      0.00000000	      0.00000000	      0.00000000	     43.32576541	    -15.65628827	     43.32576541	     75.69772800	     44.71427285	      0.00000000	      0.00000000	     43.32576541	    -15.65628827	     43.32576541	     75.69772800	     44.71427285	      0.00000000	      0.00000000
      3.63500000	    -18.00962759	     -2.68370168	      1.41660233	      0.16771268	      0.88410575	     -1.15188295	     25.88132094	    -22.87248472	    -38.45230646	     16.23017823	      0.28327005	     -3.00609000	     10.94604363	      0.00000000	     30.16723550	    -26.91969368	    -28.26887439	     14.28714400	      0.24935770	     -6.63390681	     15.61288103	      0.00000000	      0.00000000	      0.00000000	      0.00000000	     43.36960702	    -15.63254813	     43.36960702	     75.66080618	     44.73951385	      0.00000000	      0.00000000	     43.36960702	    -15.63254813	     43.36960702	     75.66080618	     44.73951385	      0.00000000	      0.00000000
      3.64000000	    -17.95418015	     -2.65107458	      1.40794495	      0.16677234	      0.88395969	     -1.15187419	     26.07847401	    -23.01936149	    -38.31537134	     16.60256184	      0.28976937	     -2.98300045	     10.71818780	      0.00000000	     30.28803611	    -26.96475600	    -28.30775622	     14.53661014	      0.25371171	     -6.58652566	     15.57432947	      0.00000000	      0.00000000	      0.00000000	      0.00000000	     43.43974332	    -15.59353433	     43.43974332	     75.59686124	     44.78824978	      0.00000000	      0.00000000	     43.43974332	    -15.59353433	     43.43974332	     75.59686124	     44.78824978	      0.00000000	      0.00000000
      3.64500000	    -18.35590367	     -2.50571003	      1.48456957	      0.16562505	      0.88282704	     -1.15202160	     26.87906697	    -23.45190697	    -38.19562492	     17.30450846	      0.30202065	     -2.75705308	     10.50920096	      0.00000000	     30.95818802	    -26.80898318	    -28.08981106	     14.81055354	      0.25849292	     -6.55421364	     15.35238428	      0.00000000	      0.00000000	      0.00000000	      0.00000000	     43.50140515	    -15.56113689	     43.50140515	     75.54914273	     44.81712809	      0.00000000	      0.00000000	     43.50140515	    -15.56113689	     43.50140515	     75.54914273	     44.81712809	      0.00000000	      0.00000000
      3.65000000	    -18.74821262	     -2.37467895	      1.52388900	      0.16444444	      0.88160960	     -1.15207448	     27.69786356	    -23.86637723	    -38.06646864	     18.04866730	      0.31500867	     -2.51233085	     10.34653105	      0.00000000	     31.66417503	    -26.73843438	    -27.99276850	     15.21673456	      0.26558212	     -6.48036602	     15.17881528	      0.00000000	      0.00000000	      0.00000000	      0.00000000	     43.56830356	    -15.52685574	     43.56830356	     75.50088947	     44.84348500	      0.00000000	      0.00000000	     43.56830356	    -15.52685574	     43.56830356	     75.50088947	     44.84348500	      0.00000000	      0.00000000
      3.65500000	    -19.15713901	     -2.30807466	      1.59870551	      0.16319544	      0.88032220	     -1.15220474	     28.50200444	    -24.22283919	    -37.96434566	     18.75245956	      0.32729216	     -2.30081456	     10.18674477	      0.00000000	     32.43625207	    -26.70712184	    -27.79178101	     15.63830586	      0.27293993	     -6.37094464	     15.00509936	      0.00000000	      0.00000000	      0.00000000	      0.00000000	     43.62362393	    -15.49882927	     43.62362393	     75.46222824	     44.86349906	      0.00000000	      0.00000000	     43.62362393	    -15.49882927	     43.62362393	     75.46222824	     44.86349906	      0.00000000	      0.00000000
